<?xml version="1.0" encoding="UTF-8" standalone="no"?><!DOCTYPE svg PUBLIC "-//W3C//DTD SVG 1.1//EN" "http://www.w3.org/Graphics/SVG/1.1/DTD/svg11.dtd"><svg width="100%" height="100%" viewBox="0 0 22 22" version="1.1" xmlns="http://www.w3.org/2000/svg" xmlns:xlink="http://www.w3.org/1999/xlink" xml:space="preserve" style="fill-rule:evenodd;clip-rule:evenodd;stroke-linejoin:round;stroke-miterlimit:1.41421;"><path d="M17.857,7.572c0,0.63 -0.512,1.142 -1.143,1.142l-2.286,0c-0.63,0 -1.142,-0.512 -1.142,-1.142l0,-2.286c0,-0.631 0.512,-1.143 1.142,-1.143l2.286,0c0.631,0 1.143,0.512 1.143,1.143l0,2.286Zm-1.143,-4.572l-2.286,0c-1.261,0 -2.285,1.023 -2.285,2.286l0,2.286c0,1.261 1.024,2.285 2.285,2.285l2.286,0c1.263,0 2.286,-1.024 2.286,-2.285l0,-2.286c0,-1.263 -1.023,-2.286 -2.286,-2.286l0,0Zm1.143,13.714c0,0.631 -0.512,1.143 -1.143,1.143l-2.286,0c-0.63,0 -1.142,-0.512 -1.142,-1.143l0,-2.286c0,-0.63 0.512,-1.142 1.142,-1.142l2.286,0c0.631,0 1.143,0.512 1.143,1.142l0,2.286Zm-1.143,-4.571l-2.286,0c-1.261,0 -2.285,1.024 -2.285,2.285l0,2.286c0,1.263 1.024,2.286 2.285,2.286l2.286,0c1.263,0 2.286,-1.023 2.286,-2.286l0,-2.286c0,-1.261 -1.023,-2.285 -2.286,-2.285l0,0Zm-8,-4.571c0,0.63 -0.512,1.142 -1.142,1.142l-2.286,0c-0.631,0 -1.143,-0.512 -1.143,-1.142l0,-2.286c0,-0.631 0.512,-1.143 1.143,-1.143l2.286,0c0.63,0 1.142,0.512 1.142,1.143l0,2.286Zm-1.142,-4.572l-2.286,0c-1.263,0 -2.286,1.023 -2.286,2.286l0,2.286c0,1.261 1.023,2.285 2.286,2.285l2.286,0c1.261,0 2.285,-1.024 2.285,-2.285l0,-2.286c0,-1.263 -1.024,-2.286 -2.285,-2.286l0,0Zm1.142,13.714c0,0.631 -0.512,1.143 -1.142,1.143l-2.286,0c-0.631,0 -1.143,-0.512 -1.143,-1.143l0,-2.286c0,-0.63 0.512,-1.142 1.143,-1.142l2.286,0c0.63,0 1.142,0.512 1.142,1.142l0,2.286Zm-1.142,-4.571l-2.286,0c-1.263,0 -2.286,1.024 -2.286,2.285l0,2.286c0,1.263 1.023,2.286 2.286,2.286l2.286,0c1.261,0 2.285,-1.023 2.285,-2.286l0,-2.286c0,-1.261 -1.024,-2.285 -2.285,-2.285l0,0Z" style="fill:#ccc;"/></svg>