<?xml version="1.0" encoding="UTF-8" standalone="no"?><!DOCTYPE svg PUBLIC "-//W3C//DTD SVG 1.1//EN" "http://www.w3.org/Graphics/SVG/1.1/DTD/svg11.dtd"><svg width="100%" height="100%" viewBox="0 0 22 22" version="1.1" xmlns="http://www.w3.org/2000/svg" xmlns:xlink="http://www.w3.org/1999/xlink" xml:space="preserve" style="fill-rule:evenodd;clip-rule:evenodd;stroke-linejoin:round;stroke-miterlimit:1.41421;"><path d="M18.2,10.222l-14.4,0c-0.442,0 -0.8,0.349 -0.8,0.778c0,0.43 0.358,0.778 0.8,0.778l14.4,0c0.442,0 0.8,-0.348 0.8,-0.778c0,-0.429 -0.358,-0.778 -0.8,-0.778Zm0,6.222l-14.4,0c-0.442,0 -0.8,0.349 -0.8,0.778c0,0.43 0.358,0.778 0.8,0.778l14.4,0c0.442,0 0.8,-0.348 0.8,-0.778c0,-0.429 -0.358,-0.778 -0.8,-0.778Zm-14.4,-10.888l14.4,0c0.442,0 0.8,-0.348 0.8,-0.778c0,-0.43 -0.358,-0.778 -0.8,-0.778l-14.4,0c-0.442,0 -0.8,0.348 -0.8,0.778c0,0.43 0.358,0.778 0.8,0.778Z" style="fill:#ccc;"/></svg>