<?xml version="1.0" encoding="UTF-8" standalone="no"?><!DOCTYPE svg PUBLIC "-//W3C//DTD SVG 1.1//EN" "http://www.w3.org/Graphics/SVG/1.1/DTD/svg11.dtd"><svg width="100%" height="100%" viewBox="0 0 22 22" version="1.1" xmlns="http://www.w3.org/2000/svg" xmlns:xlink="http://www.w3.org/1999/xlink" xml:space="preserve" style="fill-rule:evenodd;clip-rule:evenodd;stroke-linejoin:round;stroke-miterlimit:1.41421;"><clipPath id="_clip1"><path d="M18.333,19.997l-16.666,0c-0.921,0 -1.667,-0.746 -1.667,-1.666l0,-16.667c0,-0.921 0.746,-1.667 1.667,-1.667l10.675,0l-1.667,1.667l-9.008,0l0,16.667l16.666,0l0,-9.006l1.667,-1.667l0,10.673c0,0.92 -0.746,1.666 -1.667,1.666Zm-10,-4.166l-4.158,0.011l-0.008,-4.178l11.291,-11.199c0.307,-0.308 0.724,-0.481 1.159,-0.481c0.434,0 0.851,0.173 1.158,0.481l1.733,1.741c0.309,0.309 0.482,0.726 0.482,1.162c0,0.436 -0.173,0.854 -0.482,1.162l-11.175,11.301Zm-2.5,-1.667l2.5,0l-2.5,-2.5l0,2.5Zm10.784,-12.538l-9.117,9.205l1.667,1.666l9.183,-9.129l-1.733,-1.742Z"/></clipPath><g clip-path="url(#_clip1)"><rect x="-5" y="-5.016" width="30" height="30.014" style="fill:#fff;fill-rule:nonzero;"/></g></svg>